<svg width="320" height="320" viewBox="0 0 320 320" fill="none" xmlns="http://www.w3.org/2000/svg">
<rect width="320" height="320" fill="white"/>
<g clip-path="url(#clip0)">
<path d="M175.3 218.9C175.7 217.6 176.1 216.4 176.4 215.1C178.3 207.9 175.5 200.4 169.4 196.4C163.6 192.6 154.8 192.9 149.4 197.6C142.2 203.8 141.8 211.5 145.4 219.7C140.7 225.4 138.7 231.9 140.6 239.2C142.8 247.8 149.9 253.9 158.5 254.9C167.1 255.9 175.7 251.2 179.5 243.6C183.8 235.2 182.3 226.7 175.3 218.9ZM106 143.3C95.1999 133.7 80.9999 133.7 71.6999 143.4C62.5999 152.9 62.7999 167.8 72.0999 177C81.4999 186.3 95.7999 186.2 105.6 176.9C107.1 176.9 108.6 177 110.1 176.9C121.9 176.6 129.8 164.7 125.4 153.8C122.3 146.3 115.7 142.7 106 143.3ZM144 105.4C143.5 112.1 144.2 118.5 150.1 122.9C155.9 127.3 162.2 128.3 168.7 124.7C176 120.7 178.4 114.1 177.5 106.2C178.3 105.3 179.1 104.5 179.8 103.6C187.7 93.4998 186.2 79.2998 176.5 70.8998C167 62.4998 152.5 63.1998 143.8 72.2998C134.8 81.6998 134.9 95.8998 144 105.4ZM214.1 143.4C206.7 142.4 200.5 144.6 196.3 150.8C192.5 156.5 192.2 162.5 195.8 168.6C199.9 175.7 206.5 177.4 214.1 177.2C215.1 178 216.1 178.9 217.2 179.7C225.6 185.7 236.8 185.7 245.1 179.8C253.4 173.9 257.1 163.2 254 153.3C249.2 137.5 228.8 130 214.1 143.4ZM110.8 186.3C109.7 186.4 108.5 186.5 107.4 186.6C107.1 186.2 106.9 186.1 106.8 186.7C93.2999 189.1 85.2999 198.9 85.9999 212.2C86.4999 223.5 96.0999 233.4 107.3 234.2C120.7 235.2 130.8 227.2 133.4 213.5L133.6 213.6L133.4 213.5C133.5 212.4 133.7 211.3 133.8 210.2C140.1 205.9 142.5 199.9 141 192.6C139.5 185.3 134.7 181 127.7 179.5C120.7 178 115 180.4 110.8 186.3ZM186.2 210.2C186.4 211.3 186.6 212.5 186.8 213.6C188.8 227.9 202.6 237.1 216.5 233.5C227.9 230.5 234.8 220.6 234.2 208.4C233.6 197.2 225 188.5 212.6 186.6V186.4L212.5 186.6C211.5 186.5 210.4 186.4 209.4 186.3C205.3 180.4 199.5 178.1 192.6 179.5C185.7 180.8 180.9 185.2 179.4 192.1C177.7 199.3 179.6 205.8 186.2 210.2ZM133.4 106.5C133 104.9 132.7 103.3 132.1 101.7C127.5 88.6998 113.3 82.3998 100.5 87.5998C88.0999 92.7998 82.2999 107.3 87.9999 119.6C92.3999 129.3 100.6 133.2 110.7 134C114.6 140 120.7 142.5 127.7 141.1C135.4 139.5 139.9 134.7 141.3 126.6C142.4 120.5 139.4 114 133.9 110.6C133.7 109.3 133.6 107.9 133.4 106.5ZM209.9 133.9C211.5 133.6 213.2 133.4 214.8 133.1C225.8 131.2 233.7 122.3 234.5 111.1C235.2 100.3 228.4 90.2998 218.1 86.8998C204.1 82.3998 187.3 91.3998 186.7 110C179.9 114.5 177.6 121 179.3 128.6C180.8 135 185.1 139.3 191.7 140.9C199.3 142.8 205.3 140.1 209.9 133.9Z" fill="white"/>
<path d="M186.7 110C187.3 91.5002 204.1 82.4002 218.1 86.9002C228.4 90.2002 235.2 100.3 234.5 111.1C233.7 122.3 225.8 131.2 214.8 133.1C213.2 133.4 211.5 133.6 209.9 133.9C194 129.9 188.3 124 186.7 110Z" fill="#3A3738"/>
<path d="M110.7 134C100.6 133.1 92.3997 129.2 87.9997 119.6C82.3997 107.3 88.0997 92.8002 100.6 87.7002C113.4 82.5002 127.6 88.8002 132.2 101.8C132.7 103.4 133.1 105 133.5 106.6C133.7 108 133.8 109.3 134 110.7C133 116.5 131.3 121.9 127.1 126.3C122.4 130.9 116.7 132.8 110.7 134Z" fill="#3A3738"/>
<path d="M212.5 186.599C224.9 188.499 233.5 197.099 234.1 208.399C234.7 220.599 227.8 230.499 216.4 233.499C202.5 237.199 188.7 227.899 186.7 213.599C186.5 212.399 186.3 211.299 186.1 210.199C187.7 196.299 195.4 188.299 209.2 186.299C210.4 186.399 211.5 186.499 212.5 186.599Z" fill="#3A3738"/>
<path d="M133.8 210.2C133.7 211.3 133.5 212.4 133.4 213.5C130.8 227.2 120.7 235.1 107.3 234.2C95.9998 233.4 86.4998 223.6 85.9998 212.2C85.3998 198.9 93.3998 189.1 106.8 186.7L107.1 186.9L107.4 186.7C108.5 186.6 109.7 186.5 110.8 186.4C126 189.6 131.1 194.9 133.8 210.2Z" fill="#3A3738"/>
<path d="M214.1 143.401C228.8 130.001 249.2 137.501 254 153.301C257 163.201 253.4 173.801 245.1 179.801C236.8 185.701 225.6 185.701 217.2 179.701C216.1 178.901 215.2 178.101 214.1 177.201C218 174.901 222.3 173.101 224.8 168.801C230.4 159.101 226.2 149.001 214.1 143.401Z" fill="#3A3738"/>
<path d="M144 105.4C134.8 95.9998 134.7 81.7998 143.8 72.2998C152.5 63.1998 167 62.4998 176.6 70.8998C186.3 79.2998 187.7 93.4998 179.9 103.6C179.2 104.5 178.3 105.3 177.6 106.2C176.9 104.7 176.2 103.2 175.4 101.8C170.7 93.2998 160.2 90.5998 151.9 95.5998C148 97.8998 146.2 101.7 144 105.4Z" fill="#3A3738"/>
<path d="M105.6 176.999C95.7999 186.399 81.4999 186.399 72.0999 177.099C62.7999 167.899 62.5999 152.999 71.6999 143.499C80.9999 133.799 95.1999 133.699 106 143.399C96.0999 147.999 92.3999 153.199 92.9999 161.799C93.6999 169.699 98.8999 173.899 105.6 176.999Z" fill="#3A3738"/>
<path d="M175.3 218.9C182.3 226.7 183.7 235.2 179.5 243.6C175.6 251.3 167.1 255.9 158.5 254.9C149.9 253.9 142.8 247.8 140.6 239.2C138.7 231.9 140.7 225.4 145.4 219.7C149 223.1 152.5 226.6 157.9 227.2C165.5 228 170.8 224.4 175.3 218.9Z" fill="#3A3738"/>
<path d="M144 105.4C146.2 101.7 148 97.9004 151.9 95.5004C160.2 90.5004 170.6 93.2004 175.4 101.7C176.2 103.1 176.9 104.6 177.6 106.1C178.4 114.1 176 120.6 168.8 124.6C162.3 128.2 155.9 127.3 150.2 122.8C144.3 118.4 143.5 112.1 144 105.4Z" fill="#3BBAEB"/>
<path d="M105.6 177C98.8999 174 93.6999 169.7 92.9999 161.8C92.2999 153.2 96.0999 148 106 143.4C115.7 142.8 122.3 146.4 125.3 153.9C129.7 164.9 121.9 176.8 110 177C108.6 177 107.1 177 105.6 177Z" fill="#3BBAEB"/>
<path d="M175.3 218.899C170.8 224.399 165.5 228.099 157.8 227.199C152.4 226.599 149 223.099 145.3 219.699C141.7 211.399 142.1 203.799 149.3 197.599C154.7 192.899 163.5 192.599 169.3 196.399C175.4 200.399 178.2 207.899 176.3 215.099C176.1 216.299 175.7 217.599 175.3 218.899Z" fill="#3BBAEB"/>
<path d="M214.1 143.4C226.2 149 230.4 159.2 224.8 168.8C222.3 173.1 218 174.8 214.1 177.2C206.6 177.4 200 175.7 195.8 168.6C192.2 162.5 192.5 156.4 196.3 150.8C200.5 144.5 206.8 142.4 214.1 143.4Z" fill="#3BBAEB"/>
<path d="M110.7 134C116.8 132.8 122.5 131 127 126.2C131.2 121.8 132.9 116.4 133.9 110.6C139.4 114 142.4 120.5 141.3 126.6C139.9 134.7 135.4 139.5 127.7 141.1C120.7 142.5 114.6 140 110.7 134Z" fill="#3BBAEB"/>
<path d="M186.7 110C188.3 124 194 129.9 209.9 133.9C205.3 140 199.3 142.8 191.7 140.9C185.1 139.3 180.8 135 179.3 128.6C177.6 121 180 114.5 186.7 110Z" fill="#3BBAEB"/>
<path d="M133.8 210.2C131 194.9 125.9 189.6 110.8 186.3C115 180.4 120.7 178 127.7 179.5C134.8 181 139.6 185.3 141 192.6C142.5 199.9 140.1 205.9 133.8 210.2Z" fill="#3BBAEB"/>
<path d="M209.4 186.2C195.6 188.2 187.9 196.3 186.3 210.1C179.6 205.7 177.8 199.2 179.4 191.9C180.9 185 185.7 180.7 192.6 179.3C199.5 178.1 205.2 180.3 209.4 186.2Z" fill="#3BBAEB"/>
<path d="M107.4 186.6L107.1 186.8L106.8 186.6C106.9 186.1 107.2 186.2 107.4 186.6Z" fill="#3BBAEB"/>
<path d="M212.5 186.6L212.6 186.4L212.5 186.6Z" fill="#3BBAEB"/>
<path d="M133.4 213.5V213.4L133.6 213.5H133.4Z" fill="#3BBAEB"/>
</g>
<defs>
<clipPath id="clip0">
<rect width="190.1" height="190" fill="white" transform="translate(65 65)"/>
</clipPath>
</defs>
</svg>
